<?xml version="1.0" encoding="UTF-8"?>
<svg id="Layer_2" data-name="Layer 2" xmlns="http://www.w3.org/2000/svg" viewBox="0 0 957.88 99.71">
  <defs>
    <style>
      .cls-1 {
        fill: #282d3c;
        fill-rule: evenodd;
      }
    </style>
  </defs>
  <g id="Inline_Logo" data-name="Inline Logo">
    <path id="Navy" class="cls-1" d="M944.27,75.64v22.69h-17.33v-22.69h-47.59v-14.99l41.4-58.59h23.52v58.73h13.62v14.85h-13.62ZM926.94,19.67l-29.16,41.12h29.16V19.67ZM852.95,98.34h-17.33v-22.69h-47.59v-14.99l41.4-58.59h23.52v58.73h13.62v14.85h-13.62v22.69ZM835.62,19.67l-29.16,41.12h29.16V19.67ZM751.31,24.34l-23.52,14.03v-18.15l27.37-18.15h14.72v96.27h-18.57V24.34ZM654.77,98.34h-12.24v-36.17l-35.62-60.1h14.3l27.92,47.86,27.78-47.86h13.48l-35.62,60.1v36.17ZM566.89,63.13l20.36,35.21h-14.17l-21.59-37.96c-1.1-1.65-1.38-2.06-3.71-2.06h-22.56v40.02h-12.1V2.06h40.3c21.46,0,31.63,12.1,31.63,27.92s-9.63,24.48-21.73,26.96v.14c1.24,2.06,2.06,3.3,3.58,6.05ZM572.67,30.26c0-10.45-6.88-17.6-20.35-17.6h-27.1v35.21h27.23c13.48,0,20.22-7.29,20.22-17.6ZM413.54,2.06h65.88v10.59h-53.64v30.53h49.92v10.59h-49.92v33.97h54.6v10.59h-66.84V2.06ZM324.01,2.06h12.38v85.68h47.86v10.59h-60.24V2.06ZM234.48,2.06h12.38v85.68h47.86v10.59h-60.24V2.06ZM183.74,72.34h-45.39l-10.32,25.99h-12.52L154.58,2.06h13.48l39.2,96.27h-13.2l-10.32-25.99ZM161.05,14.72l-18.57,47.04h37.13l-18.57-47.04ZM78.81,82.25c-5.92,9.9-17.88,17.47-32.87,17.47C20.36,99.71,0,79.77,0,49.65S21.59,0,47.86,0c20.49,0,38.37,11.14,41.81,29.84h-12.24c-3.58-11.55-14.72-18.84-29.57-18.84-20.08,0-35.07,14.85-35.07,38.65s14.58,39.2,34.38,39.2c16.23,0,30.4-11.55,31.5-28.47v-.69h-30.53v-10.59h41.95v49.24h-11.14l-.14-16.09Z"/>
  </g>
</svg>